<svg width="2066" height="1622" xmlns="http://www.w3.org/2000/svg" xmlns:xlink="http://www.w3.org/1999/xlink" xml:space="preserve" overflow="hidden"><g transform="translate(-1098 -662)"><path d="M1219.5 1706.21 2958.27 1706.21 2958.27 1710.79 1219.5 1710.79ZM2953.69 1694.75 2981.19 1708.5 2953.69 1722.25Z" fill="#005093"/><path d="M2.29167-8.17324e-07 2.29202 988.977-2.29131 988.977-2.29167 8.17324e-07ZM13.7504 984.394 0.000360892 1011.89-13.7496 984.394Z" fill="#005093" transform="matrix(1 0 0 -1 1219.5 1711.39)"/><path d="M1216.5 1708.5C1676.03 1292.92 2135.57 877.339 2412.9 875.506 2690.24 873.673 2785.37 1285.59 2880.5 1697.5" stroke="#005093" stroke-width="3.4375" stroke-linejoin="round" stroke-miterlimit="10" fill="none" fill-rule="evenodd"/><path d="M1214.5 1714.5C1647.25 1320.37 2079.99 926.244 2341.16 924.506 2602.33 922.767 2691.91 1313.42 2781.5 1704.07" stroke="#005093" stroke-width="3.4375" stroke-linejoin="round" stroke-miterlimit="10" fill="none" fill-rule="evenodd"/><path d="M1219.5 1711.5 2984.5 1124.5" stroke="#000000" stroke-width="3.4375" stroke-linejoin="round" stroke-miterlimit="10" fill="none" fill-rule="evenodd"/><path d="M1225.5 1704.5C1642.85 1640.24 2060.2 1575.98 2343.86 1464.82 2627.53 1353.65 2830.77 1113.97 2927.5 1037.5" stroke="#000000" stroke-width="3.4375" stroke-linejoin="round" stroke-miterlimit="10" fill="none" fill-rule="evenodd"/><path d="M1212.5 1705.95C1627.97 1715.82 2043.44 1725.7 2316.44 1610.62 2589.44 1495.55 2719.97 1255.52 2850.5 1015.5" stroke="#000000" stroke-width="3.4375" stroke-linejoin="round" stroke-miterlimit="10" fill="none" fill-rule="evenodd"/><text font-family="Arial,Arial_MSFontService,sans-serif" font-weight="400" font-size="64" transform="matrix(1 0 0 1 1136.9 743)">P</text><text font-family="Arial,Arial_MSFontService,sans-serif" font-weight="400" font-size="64" transform="matrix(1 0 0 1 3054.71 1709)">f</text><path d="M2747.22 1205.5 2747.22 1500.17 2743.78 1500.17 2743.78 1205.5ZM2759.25 1495.59 2745.5 1523.09 2731.75 1495.59Z" fill="#E36E1C"/><text font-family="Arial,Arial_MSFontService,sans-serif" font-weight="400" font-size="64" transform="matrix(1 0 0 1 2660.83 1815)">f</text><text font-family="Arial,Arial_MSFontService,sans-serif" font-weight="400" font-size="43" transform="matrix(1 0 0 1 2678.6 1830)">n</text><text font-family="Arial,Arial_MSFontService,sans-serif" font-weight="400" font-size="64" transform="matrix(1 0 0 1 2702.66 1815)">(+0)</text><text font-family="Arial,Arial_MSFontService,sans-serif" font-weight="400" font-size="64" transform="matrix(1 0 0 1 2842.56 1815)">f</text><text font-family="Arial,Arial_MSFontService,sans-serif" font-weight="400" font-size="43" transform="matrix(1 0 0 1 2860.32 1830)">n</text><text font-family="Arial,Arial_MSFontService,sans-serif" font-weight="400" font-size="64" transform="matrix(1 0 0 1 2884.38 1815)">(</text><text font-family="Arial,Arial_MSFontService,sans-serif" font-weight="400" font-size="64" transform="matrix(1 0 0 1 2905.58 1815)">-</text><text font-family="Arial,Arial_MSFontService,sans-serif" font-weight="400" font-size="64" transform="matrix(1 0 0 1 2926.77 1815)">0)</text><path d="M9.00095e-06-1.71875 45.9965-1.71851 45.9964 1.71899-9.00095e-06 1.71875ZM41.4132-13.7498 68.9131 0.000360892 41.4131 13.7502Z" fill="#E36E1C" transform="matrix(-1 0 0 1 2850.41 1597.5)"/><text fill="#E37222" font-family="Arial,Arial_MSFontService,sans-serif" font-weight="400" font-size="64" transform="matrix(1 0 0 1 2778.13 1668)">Δf</text><text fill="#E37222" font-family="Arial,Arial_MSFontService,sans-serif" font-weight="400" font-size="64" transform="matrix(1 0 0 1 2763.79 1398)">Δp</text><text fill="#E37222" font-family="Arial,Arial_MSFontService,sans-serif" font-weight="400" font-size="43" transform="matrix(1 0 0 1 2842.27 1413)">m</text><text fill="#E37222" font-family="Arial,Arial_MSFontService,sans-serif" font-weight="400" font-size="64" transform="matrix(1 0 0 1 2877.8 1398)">(t)</text><path d="M2740.36 1523.1 2681.45 1326.94 2684.74 1325.95 2743.66 1522.11ZM2671.24 1334.79 2676.5 1304.5 2697.58 1326.88Z" fill="#E36E1C"/><text fill="#E37222" font-family="Arial,Arial_MSFontService,sans-serif" font-weight="400" font-size="64" transform="matrix(1 0 0 1 2594.52 1556)">t=+0</text><text fill="#E37222" font-family="Arial,Arial_MSFontService,sans-serif" font-weight="400" font-size="64" transform="matrix(1 0 0 1 2772.87 1243)">t=</text><text fill="#E37222" font-family="Arial,Arial_MSFontService,sans-serif" font-weight="400" font-size="64" transform="matrix(1 0 0 1 2827.87 1243)">-</text><text fill="#E37222" font-family="Arial,Arial_MSFontService,sans-serif" font-weight="400" font-size="64" transform="matrix(1 0 0 1 2849.07 1243)">0</text><text fill="#E37222" font-family="Arial,Arial_MSFontService,sans-serif" font-weight="400" font-size="64" transform="matrix(1 0 0 1 2546.12 1402)">t=∞</text><text font-family="Arial,Arial_MSFontService,sans-serif" font-weight="400" font-size="64" transform="matrix(1 0 0 1 2006.51 1404)">α=1</text><text font-family="Arial,Arial_MSFontService,sans-serif" font-weight="400" font-size="64" transform="matrix(1 0 0 1 2099.45 1503)">α=2</text><text font-family="Arial,Arial_MSFontService,sans-serif" font-weight="400" font-size="64" transform="matrix(1 0 0 1 2195.4 1613)">α=3</text><text fill="#005293" font-family="Arial,Arial_MSFontService,sans-serif" font-weight="400" font-size="64" transform="matrix(1 0 0 1 2568.53 901)">p</text><text fill="#005293" font-family="Arial,Arial_MSFontService,sans-serif" font-weight="400" font-size="43" transform="matrix(1 0 0 1 2604.05 916)">m</text><text fill="#005293" font-family="Arial,Arial_MSFontService,sans-serif" font-weight="400" font-size="64" transform="matrix(1 0 0 1 2657.34 901)">(</text><text fill="#005293" font-family="Arial,Arial_MSFontService,sans-serif" font-weight="400" font-size="64" transform="matrix(1 0 0 1 2678.53 901)">-</text><text fill="#005293" font-family="Arial,Arial_MSFontService,sans-serif" font-weight="400" font-size="64" transform="matrix(1 0 0 1 2699.73 901)">0) </text><text fill="#005293" font-family="Arial,Arial_MSFontService,sans-serif" font-weight="400" font-size="64" transform="matrix(1 0 0 1 2266.19 1064)">p</text><text fill="#005293" font-family="Arial,Arial_MSFontService,sans-serif" font-weight="400" font-size="43" transform="matrix(1 0 0 1 2301.72 1079)">m</text><text fill="#005293" font-family="Arial,Arial_MSFontService,sans-serif" font-weight="400" font-size="64" transform="matrix(1 0 0 1 2355 1064)">(+0) </text><text font-family="Arial,Arial_MSFontService,sans-serif" font-weight="400" font-size="64" transform="matrix(1 0 0 1 1914.11 1548)">p</text><text font-family="Arial,Arial_MSFontService,sans-serif" font-weight="400" font-size="43" transform="matrix(1 0 0 1 1949.63 1563)">w</text><path d="M2118.46 1868.2 2118.46 2268.79" stroke="#000000" stroke-width="4.58333" stroke-linejoin="round" stroke-miterlimit="10" fill="none" fill-rule="evenodd"/><path d="M1222.94 1969.5 3013.97 1969.5" stroke="#000000" stroke-width="4.58333" stroke-linejoin="round" stroke-miterlimit="10" fill="none" fill-rule="evenodd"/><path d="M1222.94 2068.5 3013.97 2068.5" stroke="#000000" stroke-width="4.58333" stroke-linejoin="round" stroke-miterlimit="10" fill="none" fill-rule="evenodd"/><path d="M1222.94 2167.5 3013.97 2167.5" stroke="#000000" stroke-width="4.58333" stroke-linejoin="round" stroke-miterlimit="10" fill="none" fill-rule="evenodd"/><path d="M1225.23 1868.2 1225.23 2268.79" stroke="#000000" stroke-width="4.58333" stroke-linejoin="round" stroke-miterlimit="10" fill="none" fill-rule="evenodd"/><path d="M3011.68 1868.2 3011.68 2268.79" stroke="#000000" stroke-width="4.58333" stroke-linejoin="round" stroke-miterlimit="10" fill="none" fill-rule="evenodd"/><path d="M1222.94 1870.5 3013.97 1870.5" stroke="#000000" stroke-width="4.58333" stroke-linejoin="round" stroke-miterlimit="10" fill="none" fill-rule="evenodd"/><path d="M1222.94 2266.5 3013.97 2266.5" stroke="#000000" stroke-width="4.58333" stroke-linejoin="round" stroke-miterlimit="10" fill="none" fill-rule="evenodd"/><text font-family="Arial,Arial_MSFontService,sans-serif" font-weight="400" font-size="55" transform="matrix(1 0 0 1 2151.46 1940)">α</text><text font-family="Arial,Arial_MSFontService,sans-serif" font-weight="400" font-size="55" transform="matrix(1 0 0 1 1258.23 1940)">Working machines</text><text font-family="Arial,Arial_MSFontService,sans-serif" font-weight="400" font-size="55" transform="matrix(1 0 0 1 2151.46 2039)">1</text><text font-family="Arial,Arial_MSFontService,sans-serif" font-weight="400" font-size="55" transform="matrix(1 0 0 1 1258.23 2039)">Translatoric</text><text font-family="Arial,Arial_MSFontService,sans-serif" font-weight="400" font-size="55" transform="matrix(1 0 0 1 1558.12 2039)">motion</text><text font-family="Arial,Arial_MSFontService,sans-serif" font-weight="400" font-size="55" transform="matrix(1 0 0 1 2151.46 2138)">2</text><text font-family="Arial,Arial_MSFontService,sans-serif" font-weight="400" font-size="55" transform="matrix(1 0 0 1 1258.23 2138)">Laminar flows</text><text font-family="Arial,Arial_MSFontService,sans-serif" font-weight="400" font-size="55" transform="matrix(1 0 0 1 2151.46 2237)">3</text><text font-family="Arial,Arial_MSFontService,sans-serif" font-weight="400" font-size="55" transform="matrix(1 0 0 1 1258.23 2237)">Turbulent flows</text></g></svg>